<svg xmlns:xlink="http://www.w3.org/1999/xlink" xmlns="http://www.w3.org/2000/svg" version="1.1" viewBox="0 0 180 180">
 <metadata>
  <rdf:RDF xmlns:dc="http://purl.org/dc/elements/1.1/" xmlns:cc="http://creativecommons.org/ns#" xmlns:rdf="http://www.w3.org/1999/02/22-rdf-syntax-ns#">
   <cc:Work>
    <dc:type rdf:resource="http://purl.org/dc/dcmitype/StillImage"/>
    <dc:date>2022-08-03T12:18:42.852891</dc:date>
    <dc:format>image/svg+xml</dc:format>
    <dc:creator>
     <cc:Agent>
      <dc:title>Matplotlib v3.5.0, https://matplotlib.org/</dc:title>
     </cc:Agent>
    </dc:creator>
   </cc:Work>
  </rdf:RDF>
 </metadata>
 <defs>
  <style type="text/css">*{stroke-linejoin: round; stroke-linecap: butt}</style>
 </defs>
 <g id="figure_1">
  <g id="patch_1">
   <path d="M 0 180  L 180 180  L 180 0  L 0 0  z " style="fill: #ffffff"/>
  </g>
  <g id="axes_1">
   <g id="patch_2">
    <path d="M 27.532546 144.612388  L 176.99976 144.612388  L 176.99976 3.00024  L 27.532546 3.00024  z " style="fill: #ffffff"/>
   </g>
   <g id="PolyCollection_1">
    <defs>
     <path id="m8246ecfe92" d="M 40.529695 -58.06138  L 40.529695 -137.320666  L 45.660149 -128.995426  L 50.790602 -120.670185  L 55.921056 -112.344945  L 61.051509 -104.019704  L 66.181963 -95.694464  L 71.312417 -87.369223  L 76.44287 -82.552353  L 81.573324 -79.489668  L 86.703777 -76.426984  L 91.834231 -73.364299  L 96.964684 -70.301614  L 102.095138 -67.238929  L 107.225592 -64.821573  L 112.356045 -63.694874  L 117.486499 -62.568176  L 122.616952 -61.441477  L 127.747406 -60.314778  L 132.877859 -59.188079  L 138.008313 -58.06138  L 138.008313 -58.06138  L 138.008313 -58.06138  L 132.877859 -58.06138  L 127.747406 -58.06138  L 122.616952 -58.06138  L 117.486499 -58.06138  L 112.356045 -58.06138  L 107.225592 -58.06138  L 102.095138 -58.06138  L 96.964684 -58.06138  L 91.834231 -58.06138  L 86.703777 -58.06138  L 81.573324 -58.06138  L 76.44287 -58.06138  L 71.312417 -58.06138  L 66.181963 -58.06138  L 61.051509 -58.06138  L 55.921056 -58.06138  L 50.790602 -58.06138  L 45.660149 -58.06138  L 40.529695 -58.06138  z " style="stroke: #ff7f0e; stroke-opacity: 0.75"/>
    </defs>
    <g clip-path="url(#p5b123c569d)">
     <use xlink:href="#m8246ecfe92" x="0" y="180" style="fill: #ff7f0e; fill-opacity: 0.75; stroke: #ff7f0e; stroke-opacity: 0.75"/>
    </g>
   </g>
   <g id="PolyCollection_2">
    <defs>
     <path id="m7604dcd65d" d="M 40.529695 -58.06138  L 40.529695 -159.994434  L 47.3703 -154.629536  L 54.210905 -149.264639  L 61.051509 -143.899741  L 67.892114 -138.534844  L 74.732719 -133.169946  L 81.573324 -127.805049  L 88.413928 -122.440151  L 95.254533 -117.075254  L 102.095138 -111.710356  L 108.935743 -106.345458  L 115.776347 -100.980561  L 122.616952 -95.615663  L 129.457557 -90.250766  L 136.298162 -84.885868  L 143.138766 -79.520971  L 149.979371 -74.156073  L 156.819976 -68.791176  L 163.660581 -63.426278  L 170.501185 -58.06138  L 170.501185 -58.06138  L 170.501185 -58.06138  L 163.660581 -58.06138  L 156.819976 -58.06138  L 149.979371 -58.06138  L 143.138766 -58.06138  L 136.298162 -58.06138  L 129.457557 -58.06138  L 122.616952 -58.06138  L 115.776347 -58.06138  L 108.935743 -58.06138  L 102.095138 -58.06138  L 95.254533 -58.06138  L 88.413928 -58.06138  L 81.573324 -58.06138  L 74.732719 -58.06138  L 67.892114 -58.06138  L 61.051509 -58.06138  L 54.210905 -58.06138  L 47.3703 -58.06138  L 40.529695 -58.06138  z " style="stroke: #1f77b4; stroke-opacity: 0.15"/>
    </defs>
    <g clip-path="url(#p5b123c569d)">
     <use xlink:href="#m7604dcd65d" x="0" y="180" style="fill: #1f77b4; fill-opacity: 0.15; stroke: #1f77b4; stroke-opacity: 0.15"/>
    </g>
   </g>
   <g id="matplotlib.axis_1">
    <g id="xtick_1">
     <g id="line2d_1">
      <defs>
       <path id="meb6cc58993" d="M 0 0  L 0 3.5  " style="stroke: #000000; stroke-width: 0.8"/>
      </defs>
      <g>
       <use xlink:href="#meb6cc58993" x="40.529695" y="144.612388" style="stroke: #000000; stroke-width: 0.8"/>
      </g>
     </g>
     <g id="text_1">
      <!-- $\kappa_1$ -->
      <g transform="translate(35.674048 158.366965)scale(0.1 -0.1)">
       <defs>
        <path id="CMMI12-14" d="M 1363 1595  C 1574 1710 1811 1908 1971 2042  C 2355 2374 2496 2476 2739 2572  C 2714 2534 2707 2483 2707 2438  C 2707 2265 2854 2233 2918 2233  C 3123 2233 3238 2425 3238 2547  C 3238 2585 3226 2752 3002 2752  C 2618 2752 2240 2425 1958 2188  C 1587 1863 1402 1723 1139 1640  L 1382 2655  C 1382 2758 1299 2816 1216 2816  C 1158 2816 1018 2796 966 2591  L 371 223  C 352 146 352 134 352 95  C 352 6 422 -64 518 -64  C 710 -64 749 102 781 236  C 819 369 1082 1433 1094 1472  C 1907 1433 2182 1229 2182 917  C 2182 873 2182 854 2163 783  C 2138 662 2138 592 2138 554  C 2138 172 2387 -64 2701 -64  C 2963 -64 3110 121 3206 286  C 3341 535 3424 885 3424 911  C 3424 943 3398 968 3360 968  C 3302 968 3296 943 3270 841  C 3187 535 3046 64 2720 64  C 2579 64 2509 146 2509 369  C 2509 490 2534 631 2560 726  C 2573 790 2592 866 2592 936  C 2592 1518 1786 1576 1363 1595  z " transform="scale(0.015625)"/>
        <path id="CMR17-31" d="M 1702 4083  C 1702 4217 1696 4224 1606 4224  C 1357 3927 979 3833 621 3820  C 602 3820 570 3820 563 3808  C 557 3795 557 3782 557 3648  C 755 3648 1088 3686 1344 3839  L 1344 467  C 1344 243 1331 166 781 166  L 589 166  L 589 0  C 896 6 1216 12 1523 12  C 1830 12 2150 6 2458 0  L 2458 166  L 2266 166  C 1715 166 1702 236 1702 467  L 1702 4083  z " transform="scale(0.015625)"/>
       </defs>
       <use xlink:href="#CMMI12-14" transform="scale(0.996264)"/>
       <use xlink:href="#CMR17-31" transform="translate(56.154624 -14.943915)scale(0.697382)"/>
      </g>
     </g>
    </g>
    <g id="xtick_2">
     <g id="line2d_2">
      <g>
       <use xlink:href="#meb6cc58993" x="73.022568" y="144.612388" style="stroke: #000000; stroke-width: 0.8"/>
      </g>
     </g>
     <g id="text_2">
      <!-- $\kappa_2$ -->
      <g transform="translate(68.166921 158.366965)scale(0.1 -0.1)">
       <defs>
        <path id="CMR17-32" d="M 2669 990  L 2554 990  C 2490 537 2438 460 2413 422  C 2381 371 1920 371 1830 371  L 602 371  C 832 620 1280 1073 1824 1596  C 2214 1966 2669 2400 2669 3033  C 2669 3788 2067 4224 1395 4224  C 691 4224 262 3603 262 3027  C 262 2777 448 2745 525 2745  C 589 2745 781 2783 781 3007  C 781 3206 614 3264 525 3264  C 486 3264 448 3257 422 3244  C 544 3788 915 4057 1306 4057  C 1862 4057 2227 3616 2227 3033  C 2227 2477 1901 1998 1536 1583  L 262 147  L 262 0  L 2515 0  L 2669 990  z " transform="scale(0.015625)"/>
       </defs>
       <use xlink:href="#CMMI12-14" transform="scale(0.996264)"/>
       <use xlink:href="#CMR17-32" transform="translate(56.154624 -14.943915)scale(0.697382)"/>
      </g>
     </g>
    </g>
    <g id="xtick_3">
     <g id="line2d_3">
      <g>
       <use xlink:href="#meb6cc58993" x="105.51544" y="144.612388" style="stroke: #000000; stroke-width: 0.8"/>
      </g>
     </g>
     <g id="text_3">
      <!-- $\kappa_3$ -->
      <g transform="translate(100.659793 158.366965)scale(0.1 -0.1)">
       <defs>
        <path id="CMR17-33" d="M 1414 2176  C 1984 2176 2234 1673 2234 1094  C 2234 322 1824 25 1453 25  C 1114 25 563 193 390 691  C 422 678 454 678 486 678  C 640 678 755 780 755 947  C 755 1132 614 1216 486 1216  C 378 1216 211 1164 211 927  C 211 335 787 -128 1466 -128  C 2176 -128 2720 432 2720 1087  C 2720 1718 2208 2176 1600 2246  C 2086 2347 2554 2776 2554 3353  C 2554 3856 2048 4224 1472 4224  C 890 4224 378 3862 378 3347  C 378 3123 544 3084 627 3084  C 762 3084 877 3167 877 3334  C 877 3500 762 3584 627 3584  C 602 3584 570 3584 544 3571  C 730 3999 1235 4076 1459 4076  C 1683 4076 2106 3966 2106 3347  C 2106 3167 2080 2851 1862 2574  C 1670 2329 1453 2316 1242 2297  C 1210 2297 1062 2284 1037 2284  C 992 2278 966 2272 966 2227  C 966 2182 973 2176 1101 2176  L 1414 2176  z " transform="scale(0.015625)"/>
       </defs>
       <use xlink:href="#CMMI12-14" transform="scale(0.996264)"/>
       <use xlink:href="#CMR17-33" transform="translate(56.154624 -14.943915)scale(0.697382)"/>
      </g>
     </g>
    </g>
    <g id="xtick_4">
     <g id="line2d_4">
      <g>
       <use xlink:href="#meb6cc58993" x="138.008313" y="144.612388" style="stroke: #000000; stroke-width: 0.8"/>
      </g>
     </g>
     <g id="text_4">
      <!-- $\kappa_*$ -->
      <g transform="translate(133.097324 158.366965)scale(0.1 -0.1)">
       <defs>
        <path id="CMSY10-3" d="M 1760 2762  C 1766 2853 1766 3008 1600 3008  C 1498 3008 1414 2924 1434 2840  L 1434 2755  L 1523 1740  L 704 2349  C 646 2382 634 2395 589 2395  C 499 2395 416 2303 416 2212  C 416 2107 480 2081 544 2048  L 1453 1603  L 570 1164  C 467 1112 416 1085 416 987  C 416 889 499 804 589 804  C 634 804 646 804 806 928  L 1523 1459  L 1427 359  C 1427 224 1542 192 1594 192  C 1670 192 1766 236 1766 359  L 1670 1459  L 2490 850  C 2547 817 2560 804 2605 804  C 2694 804 2778 896 2778 987  C 2778 1085 2720 1118 2643 1157  C 2259 1354 2246 1354 1741 1596  L 2624 2035  C 2726 2087 2778 2113 2778 2212  C 2778 2310 2694 2395 2605 2395  C 2560 2395 2547 2395 2387 2271  L 1670 1740  L 1760 2762  z " transform="scale(0.015625)"/>
       </defs>
       <use xlink:href="#CMMI12-14" transform="scale(0.996264)"/>
       <use xlink:href="#CMSY10-3" transform="translate(56.154624 -14.943915)scale(0.697382)"/>
      </g>
     </g>
    </g>
    <g id="xtick_5">
     <g id="line2d_5">
      <g>
       <use xlink:href="#meb6cc58993" x="170.501185" y="144.612388" style="stroke: #000000; stroke-width: 0.8"/>
      </g>
     </g>
     <g id="text_5">
      <!-- $\kappa_5$ -->
      <g transform="translate(165.645539 158.366965)scale(0.1 -0.1)">
       <defs>
        <path id="CMR17-35" d="M 730 3750  C 794 3724 1056 3641 1325 3641  C 1920 3641 2246 3961 2432 4140  C 2432 4191 2432 4224 2394 4224  C 2387 4224 2374 4224 2323 4198  C 2099 4102 1837 4032 1517 4032  C 1325 4032 1037 4055 723 4191  C 653 4224 640 4224 634 4224  C 602 4224 595 4217 595 4090  L 595 2231  C 595 2113 595 2080 659 2080  C 691 2080 704 2093 736 2139  C 941 2435 1222 2560 1542 2560  C 1766 2560 2246 2415 2246 1293  C 2246 1087 2246 716 2054 422  C 1894 159 1645 25 1370 25  C 947 25 518 319 403 812  C 429 806 480 793 506 793  C 589 793 749 838 749 1036  C 749 1209 627 1280 506 1280  C 358 1280 262 1190 262 1011  C 262 454 704 -128 1382 -128  C 2042 -128 2669 441 2669 1267  C 2669 2054 2170 2662 1549 2662  C 1222 2662 947 2540 730 2304  L 730 3750  z " transform="scale(0.015625)"/>
       </defs>
       <use xlink:href="#CMMI12-14" transform="scale(0.996264)"/>
       <use xlink:href="#CMR17-35" transform="translate(56.154624 -14.943915)scale(0.697382)"/>
      </g>
     </g>
    </g>
    <g id="text_6">
     <!-- Capacity -->
     <g transform="translate(77.474448 173.9802)scale(0.14 -0.14)">
      <defs>
       <path id="NimbusRomNo9L-Regu-43" d="M 3968 2905  L 3910 4352  L 3776 4352  C 3738 4217 3635 4140 3507 4140  C 3450 4140 3354 4159 3258 4198  C 2944 4300 2624 4352 2323 4352  C 1798 4352 1267 4153 870 3801  C 422 3405 179 2809 179 2105  C 179 1510 371 960 698 595  C 1082 179 1670 -64 2304 -64  C 3027 -64 3661 230 4051 748  L 3936 864  C 3462 409 3040 217 2509 217  C 2106 217 1747 345 1472 588  C 1120 902 922 1478 922 2188  C 922 3347 1517 4095 2445 4095  C 2810 4095 3142 3961 3398 3705  C 3603 3501 3699 3321 3821 2905  L 3968 2905  z " transform="scale(0.015625)"/>
       <path id="NimbusRomNo9L-Regu-61" d="M 2829 422  C 2720 332 2643 300 2547 300  C 2400 300 2355 390 2355 672  L 2355 1920  C 2355 2252 2323 2438 2227 2592  C 2086 2822 1811 2944 1434 2944  C 832 2944 358 2630 358 2227  C 358 2080 486 1952 634 1952  C 787 1952 922 2080 922 2220  C 922 2246 915 2278 909 2323  C 896 2380 890 2432 890 2476  C 890 2649 1094 2790 1350 2790  C 1664 2790 1837 2604 1837 2259  L 1837 1868  C 851 1472 742 1420 467 1177  C 326 1049 237 832 237 620  C 237 217 518 -64 909 -64  C 1190 -64 1453 70 1843 403  C 1875 70 1990 -64 2253 -64  C 2470 -64 2605 12 2829 256  L 2829 422  z M 1837 787  C 1837 588 1805 531 1670 454  C 1517 364 1338 307 1203 307  C 979 307 800 524 800 800  L 800 825  C 800 1203 1062 1433 1837 1715  L 1837 787  z " transform="scale(0.015625)"/>
       <path id="NimbusRomNo9L-Regu-70" d="M 58 2515  C 115 2521 160 2521 218 2521  C 435 2521 480 2457 480 2157  L 480 -839  C 480 -1172 410 -1242 32 -1280  L 32 -1389  L 1581 -1389  L 1581 -1280  C 1101 -1274 1018 -1203 1018 -798  L 1018 211  C 1242 0 1395 -64 1664 -64  C 2419 -64 3008 652 3008 1580  C 3008 2374 2560 2944 1939 2944  C 1581 2944 1299 2783 1018 2438  L 1018 2931  L 979 2944  C 634 2809 410 2726 58 2617  L 58 2515  z M 1018 2137  C 1018 2329 1376 2559 1670 2559  C 2144 2559 2458 2073 2458 1331  C 2458 620 2144 140 1683 140  C 1382 140 1018 371 1018 563  L 1018 2137  z " transform="scale(0.015625)"/>
       <path id="NimbusRomNo9L-Regu-63" d="M 2547 998  C 2240 550 2010 396 1645 396  C 1062 396 653 908 653 1644  C 653 2303 1005 2758 1523 2758  C 1754 2758 1837 2687 1901 2451  L 1939 2310  C 1990 2131 2106 2015 2240 2015  C 2406 2015 2547 2137 2547 2284  C 2547 2643 2099 2944 1562 2944  C 1248 2944 922 2815 659 2585  C 339 2303 160 1868 160 1363  C 160 531 666 -64 1376 -64  C 1664 -64 1920 38 2150 236  C 2323 390 2445 563 2637 940  L 2547 998  z " transform="scale(0.015625)"/>
       <path id="NimbusRomNo9L-Regu-69" d="M 1120 2944  L 128 2592  L 128 2496  L 179 2502  C 256 2515 339 2521 397 2521  C 550 2521 608 2419 608 2137  L 608 652  C 608 192 544 121 102 96  L 102 0  L 1619 0  L 1619 96  C 1197 128 1146 192 1146 652  L 1146 2924  L 1120 2944  z M 819 4352  C 646 4352 499 4204 499 4025  C 499 3846 640 3699 819 3699  C 1005 3699 1152 3839 1152 4025  C 1152 4204 1005 4352 819 4352  z " transform="scale(0.015625)"/>
       <path id="NimbusRomNo9L-Regu-74" d="M 1632 2880  L 986 2880  L 986 3622  C 986 3686 979 3705 941 3705  C 896 3648 858 3590 813 3526  C 570 3174 294 2867 192 2841  C 122 2796 83 2751 83 2719  C 83 2700 90 2687 109 2675  L 448 2675  L 448 748  C 448 211 640 -64 1018 -64  C 1331 -64 1574 89 1786 422  L 1702 492  C 1568 332 1459 268 1318 268  C 1082 268 986 441 986 844  L 986 2675  L 1632 2675  L 1632 2880  z " transform="scale(0.015625)"/>
       <path id="NimbusRomNo9L-Regu-79" d="M 3040 2880  L 2176 2880  L 2176 2783  C 2381 2783 2483 2726 2483 2623  C 2483 2597 2477 2559 2458 2514  L 1837 741  L 1101 2366  C 1062 2456 1037 2540 1037 2610  C 1037 2726 1133 2771 1408 2783  L 1408 2880  L 90 2880  L 90 2790  C 256 2764 365 2694 416 2585  L 1146 1005  L 1165 953  L 1261 761  C 1440 439 1542 208 1542 112  C 1542 15 1395 -389 1286 -582  C 1197 -749 1056 -871 966 -871  C 928 -871 870 -858 806 -826  C 685 -781 576 -755 467 -755  C 320 -755 192 -884 192 -1037  C 192 -1248 397 -1408 666 -1408  C 1094 -1408 1402 -1050 1747 -126  L 2733 2495  C 2816 2700 2886 2764 3040 2783  L 3040 2880  z " transform="scale(0.015625)"/>
      </defs>
      <use xlink:href="#NimbusRomNo9L-Regu-43" transform="scale(0.996264)"/>
      <use xlink:href="#NimbusRomNo9L-Regu-61" transform="translate(66.450031 0)scale(0.996264)"/>
      <use xlink:href="#NimbusRomNo9L-Regu-70" transform="translate(110.6836 0)scale(0.996264)"/>
      <use xlink:href="#NimbusRomNo9L-Regu-61" transform="translate(160.4968 0)scale(0.996264)"/>
      <use xlink:href="#NimbusRomNo9L-Regu-63" transform="translate(204.730369 0)scale(0.996264)"/>
      <use xlink:href="#NimbusRomNo9L-Regu-69" transform="translate(248.963938 0)scale(0.996264)"/>
      <use xlink:href="#NimbusRomNo9L-Regu-74" transform="translate(276.659107 0)scale(0.996264)"/>
      <use xlink:href="#NimbusRomNo9L-Regu-79" transform="translate(304.354277 0)scale(0.996264)"/>
     </g>
    </g>
   </g>
   <g id="matplotlib.axis_2">
    <g id="ytick_1">
     <g id="line2d_6">
      <defs>
       <path id="m9b9efa22ec" d="M 0 0  L -3.5 0  " style="stroke: #000000; stroke-width: 0.8"/>
      </defs>
      <g>
       <use xlink:href="#m9b9efa22ec" x="27.532546" y="20.005566" style="stroke: #000000; stroke-width: 0.8"/>
      </g>
     </g>
     <g id="text_7">
      <!-- $\ell^b$ -->
      <g transform="translate(12.112446 23.720578)scale(0.11 -0.11)">
       <defs>
        <path id="CMMI12-60" d="M 589 1091  C 186 698 83 603 83 577  C 83 552 109 508 154 508  C 186 508 550 856 602 913  C 640 488 800 -64 1299 -64  C 1555 -64 1786 95 1888 171  C 1971 235 2278 495 2278 552  C 2278 584 2246 622 2214 622  C 2189 622 2093 527 2067 501  C 1843 286 1562 64 1306 64  C 960 64 915 558 915 901  C 915 964 915 1231 960 1281  C 1338 1668 2522 2880 2522 4002  C 2522 4256 2426 4480 2150 4480  C 1555 4480 1037 3171 947 2930  C 922 2867 550 1890 589 1091  z M 973 1484  C 979 1522 1267 3184 1805 4072  C 1914 4243 2022 4351 2150 4351  C 2368 4351 2381 4148 2381 4009  C 2381 3787 2317 3216 1760 2417  C 1594 2182 1338 1865 973 1484  z " transform="scale(0.015625)"/>
        <path id="CMMI12-62" d="M 1478 4255  C 1485 4281 1498 4319 1498 4351  C 1498 4416 1434 4416 1421 4416  C 1414 4416 1184 4396 1069 4383  C 960 4377 864 4364 749 4358  C 595 4345 550 4339 550 4223  C 550 4159 614 4159 678 4159  C 1005 4159 1005 4103 1005 4040  C 1005 3995 954 3812 928 3699  L 774 3093  C 710 2841 346 1392 320 1277  C 288 1117 288 1008 288 925  C 288 274 653 -64 1069 -64  C 1811 -64 2579 887 2579 1813  C 2579 2400 2246 2816 1766 2816  C 1434 2816 1133 2541 1011 2413  L 1478 4255  z M 1075 64  C 870 64 646 217 646 715  C 646 925 666 1047 781 1494  C 800 1577 902 1985 928 2068  C 941 2119 1318 2687 1754 2687  C 2035 2687 2163 2407 2163 2075  C 2163 1768 1984 1047 1824 715  C 1664 370 1370 64 1075 64  z " transform="scale(0.015625)"/>
       </defs>
       <use xlink:href="#CMMI12-60" transform="scale(0.996264)"/>
       <use xlink:href="#CMMI12-62" transform="translate(40.934219 36.153639)scale(0.697382)"/>
      </g>
     </g>
    </g>
    <g id="ytick_2">
     <g id="line2d_7">
      <g>
       <use xlink:href="#m9b9efa22ec" x="27.532546" y="42.679334" style="stroke: #000000; stroke-width: 0.8"/>
      </g>
     </g>
     <g id="text_8">
      <!-- $\ell^1$ -->
      <g transform="translate(11.597972 46.394346)scale(0.11 -0.11)">
       <use xlink:href="#CMMI12-60" transform="scale(0.996264)"/>
       <use xlink:href="#CMR17-31" transform="translate(40.934219 36.153639)scale(0.697382)"/>
      </g>
     </g>
    </g>
    <g id="ytick_3">
     <g id="line2d_8">
      <g>
       <use xlink:href="#m9b9efa22ec" x="27.532546" y="121.93862" style="stroke: #000000; stroke-width: 0.8"/>
      </g>
     </g>
     <g id="text_9">
      <!-- $\ell^*$ -->
      <g transform="translate(11.476206 125.653631)scale(0.11 -0.11)">
       <use xlink:href="#CMMI12-60" transform="scale(0.996264)"/>
       <use xlink:href="#CMSY10-3" transform="translate(40.934219 36.153639)scale(0.697382)"/>
      </g>
     </g>
    </g>
    <g id="text_10">
     <!-- Loss -->
     <g transform="translate(12.456646 86.979768)rotate(-90)scale(0.14 -0.14)">
      <defs>
       <path id="NimbusRomNo9L-Regu-4c" d="M 3667 1110  C 3558 868 3469 721 3373 613  C 3149 364 2797 249 2266 249  L 1837 249  C 1370 249 1286 287 1286 511  L 1286 3528  C 1286 3981 1376 4070 1882 4102  L 1882 4224  L 77 4224  L 77 4102  C 550 4064 634 3974 634 3528  L 634 696  C 634 249 544 153 77 121  L 77 0  L 3520 0  L 3827 1113  L 3667 1110  z " transform="scale(0.015625)"/>
       <path id="NimbusRomNo9L-Regu-6f" d="M 1600 2944  C 768 2944 186 2329 186 1446  C 186 582 781 -64 1587 -64  C 2394 -64 3008 614 3008 1497  C 3008 2336 2419 2944 1600 2944  z M 1517 2764  C 2054 2764 2432 2150 2432 1273  C 2432 550 2144 115 1664 115  C 1414 115 1178 268 1043 524  C 864 857 762 1305 762 1760  C 762 2368 1062 2764 1517 2764  z " transform="scale(0.015625)"/>
       <path id="NimbusRomNo9L-Regu-73" d="M 2016 2009  L 1990 2880  L 1920 2880  L 1907 2867  C 1850 2822 1843 2815 1818 2815  C 1779 2815 1715 2828 1645 2860  C 1504 2918 1363 2944 1197 2944  C 691 2944 326 2617 326 2155  C 326 1796 531 1539 1075 1231  L 1446 1019  C 1670 891 1779 737 1779 538  C 1779 256 1574 76 1248 76  C 1030 76 832 160 710 301  C 576 461 518 609 435 974  L 333 974  L 333 -26  L 416 -26  C 461 38 486 51 563 51  C 621 51 710 38 858 0  C 1037 -39 1210 -64 1325 -64  C 1818 -64 2227 307 2227 756  C 2227 1077 2074 1289 1690 1520  L 998 1930  C 819 2033 723 2193 723 2366  C 723 2623 922 2803 1216 2803  C 1581 2803 1773 2585 1920 2014  L 2016 2009  z " transform="scale(0.015625)"/>
      </defs>
      <use xlink:href="#NimbusRomNo9L-Regu-4c" transform="scale(0.996264)"/>
      <use xlink:href="#NimbusRomNo9L-Regu-6f" transform="translate(60.871631 0)scale(0.996264)"/>
      <use xlink:href="#NimbusRomNo9L-Regu-73" transform="translate(110.684831 0)scale(0.996264)"/>
      <use xlink:href="#NimbusRomNo9L-Regu-73" transform="translate(149.438537 0)scale(0.996264)"/>
     </g>
    </g>
   </g>
   <g id="line2d_9">
    <path d="M 40.529695 121.93862  L 73.022568 121.93862  L 105.51544 121.93862  L 138.008313 121.93862  L 170.501185 121.93862  " clip-path="url(#p5b123c569d)" style="fill: none; stroke-dasharray: 5.55,2.4; stroke-dashoffset: 0; stroke: #000000; stroke-width: 1.5"/>
   </g>
   <g id="line2d_10">
    <path d="M 40.529695 42.679334  L 73.022568 95.405857  L 105.51544 114.802861  L 138.008313 121.93862  L 170.501185 117.403866  " clip-path="url(#p5b123c569d)" style="fill: none; stroke: #000000; stroke-width: 1.5; stroke-linecap: square"/>
    <defs>
     <path id="m7a475de8df" d="M 0 3  C 0.795609 3 1.55874 2.683901 2.12132 2.12132  C 2.683901 1.55874 3 0.795609 3 0  C 3 -0.795609 2.683901 -1.55874 2.12132 -2.12132  C 1.55874 -2.683901 0.795609 -3 0 -3  C -0.795609 -3 -1.55874 -2.683901 -2.12132 -2.12132  C -2.683901 -1.55874 -3 -0.795609 -3 0  C -3 0.795609 -2.683901 1.55874 -2.12132 2.12132  C -1.55874 2.683901 -0.795609 3 0 3  z " style="stroke: #ffffff; stroke-width: 0.75"/>
    </defs>
    <g clip-path="url(#p5b123c569d)">
     <use xlink:href="#m7a475de8df" x="40.529695" y="42.679334" style="stroke: #ffffff; stroke-width: 0.75"/>
     <use xlink:href="#m7a475de8df" x="73.022568" y="95.405857" style="stroke: #ffffff; stroke-width: 0.75"/>
     <use xlink:href="#m7a475de8df" x="105.51544" y="114.802861" style="stroke: #ffffff; stroke-width: 0.75"/>
     <use xlink:href="#m7a475de8df" x="138.008313" y="121.93862" style="stroke: #ffffff; stroke-width: 0.75"/>
     <use xlink:href="#m7a475de8df" x="170.501185" y="117.403866" style="stroke: #ffffff; stroke-width: 0.75"/>
    </g>
   </g>
   <g id="patch_3">
    <path d="M 27.532546 144.612388  L 27.532546 3.00024  " style="fill: none; stroke: #000000; stroke-width: 0.8; stroke-linejoin: miter; stroke-linecap: square"/>
   </g>
   <g id="patch_4">
    <path d="M 176.99976 144.612388  L 176.99976 3.00024  " style="fill: none; stroke: #000000; stroke-width: 0.8; stroke-linejoin: miter; stroke-linecap: square"/>
   </g>
   <g id="patch_5">
    <path d="M 27.532546 144.612388  L 176.99976 144.612388  " style="fill: none; stroke: #000000; stroke-width: 0.8; stroke-linejoin: miter; stroke-linecap: square"/>
   </g>
   <g id="patch_6">
    <path d="M 27.532546 3.00024  L 176.99976 3.00024  " style="fill: none; stroke: #000000; stroke-width: 0.8; stroke-linejoin: miter; stroke-linecap: square"/>
   </g>
   <g id="legend_1">
    <g id="patch_7">
     <path d="M 87.756644 46.576629  L 168.59976 46.576629  Q 170.99976 46.576629 170.99976 44.176629  L 170.99976 11.40024  Q 170.99976 9.00024 168.59976 9.00024  L 87.756644 9.00024  Q 85.356644 9.00024 85.356644 11.40024  L 85.356644 44.176629  Q 85.356644 46.576629 87.756644 46.576629  z " style="fill: #ffffff; opacity: 0.8; stroke: #cccccc; stroke-linejoin: miter"/>
    </g>
    <g id="line2d_11">
     <path d="M 90.156644 18.00024  L 96.156644 18.00024  L 102.156644 18.00024  " style="fill: none; stroke: #ff7f0e; stroke-opacity: 0.75; stroke-width: 5; stroke-linecap: square"/>
    </g>
    <g id="text_11">
     <!-- AULCC -->
     <g transform="translate(111.756644 22.20024)scale(0.12 -0.12)">
      <defs>
       <path id="NimbusRomNo9L-Regu-41" d="M 4518 121  C 4230 141 4166 205 3942 686  L 2349 4288  L 2221 4288  L 890 1187  C 480 238 403 134 96 121  L 96 0  L 1363 0  L 1363 121  C 1056 121 928 205 928 387  C 928 465 947 556 979 641  L 1274 1401  L 2950 1401  L 3213 777  C 3290 602 3334 433 3334 342  C 3334 179 3226 128 2886 121  L 2886 0  L 4518 0  L 4518 121  z M 1382 1664  L 2118 3392  L 2861 1664  L 1382 1664  z " transform="scale(0.015625)"/>
       <path id="NimbusRomNo9L-Regu-55" d="M 3910 3291  C 3910 3937 3987 4038 4512 4102  L 4512 4224  L 3027 4224  L 3027 4102  C 3526 4064 3629 3924 3629 3291  L 3629 1580  C 3629 1149 3584 908 3482 718  C 3309 414 2899 217 2419 217  C 1965 217 1651 369 1478 667  C 1363 870 1318 1104 1318 1504  L 1318 3531  C 1318 3988 1389 4057 1901 4102  L 1901 4224  L 90 4224  L 90 4102  C 595 4064 666 3994 666 3531  L 666 1554  C 666 458 1184 -64 2272 -64  C 2970 -64 3450 160 3699 591  C 3853 857 3910 1149 3910 1637  L 3910 3291  z " transform="scale(0.015625)"/>
      </defs>
      <use xlink:href="#NimbusRomNo9L-Regu-41" transform="scale(0.996264)"/>
      <use xlink:href="#NimbusRomNo9L-Regu-55" transform="translate(66.451262 0)scale(0.996264)"/>
      <use xlink:href="#NimbusRomNo9L-Regu-4c" transform="translate(138.381247 0)scale(0.996264)"/>
      <use xlink:href="#NimbusRomNo9L-Regu-43" transform="translate(199.252878 0)scale(0.996264)"/>
      <use xlink:href="#NimbusRomNo9L-Regu-43" transform="translate(265.702909 0)scale(0.996264)"/>
     </g>
    </g>
    <g id="line2d_12">
     <path d="M 90.156644 34.988435  L 96.156644 34.988435  L 102.156644 34.988435  " style="fill: none; stroke: #1f77b4; stroke-opacity: 0.15; stroke-width: 5; stroke-linecap: square"/>
    </g>
    <g id="text_12">
     <!-- Normalizer -->
     <g transform="translate(111.756644 39.188435)scale(0.12 -0.12)">
      <defs>
       <path id="NimbusRomNo9L-Regu-4e" d="M 3917 -64  L 3917 3287  C 3917 3669 3981 3905 4102 3988  C 4192 4051 4282 4077 4525 4102  L 4525 4224  L 3021 4224  L 3021 4102  C 3264 4083 3354 4058 3450 4000  C 3578 3911 3635 3682 3635 3287  L 3635 1140  L 1171 4224  L 77 4224  L 77 4102  C 352 4102 442 4051 698 3752  L 698 943  C 698 281 608 160 77 121  L 77 0  L 1581 0  L 1581 121  C 1088 147 979 294 979 940  L 979 3449  L 3808 -64  L 3917 -64  z " transform="scale(0.015625)"/>
       <path id="NimbusRomNo9L-Regu-72" d="M 45 2496  C 134 2515 192 2521 269 2521  C 429 2521 486 2419 486 2137  L 486 537  C 486 217 442 172 32 96  L 32 0  L 1568 0  L 1568 96  C 1133 115 1024 211 1024 576  L 1024 2016  C 1024 2220 1299 2540 1472 2540  C 1510 2540 1568 2508 1638 2444  C 1741 2355 1811 2316 1894 2316  C 2048 2316 2144 2425 2144 2604  C 2144 2815 2010 2944 1792 2944  C 1523 2944 1338 2796 1024 2342  L 1024 2931  L 992 2944  C 653 2803 422 2720 45 2598  L 45 2496  z " transform="scale(0.015625)"/>
       <path id="NimbusRomNo9L-Regu-6d" d="M 122 2547  C 205 2566 256 2572 326 2572  C 493 2572 550 2470 550 2163  L 550 544  C 550 198 461 102 102 96  L 102 0  L 1523 0  L 1523 96  C 1184 108 1088 179 1088 428  L 1088 2233  C 1088 2246 1139 2310 1184 2355  C 1344 2502 1619 2611 1843 2611  C 2125 2611 2266 2387 2266 1939  L 2266 550  C 2266 192 2195 121 1830 96  L 1830 0  L 3264 0  L 3264 96  C 2899 102 2803 211 2803 608  L 2803 2220  C 2995 2496 3206 2611 3501 2611  C 3866 2611 3981 2438 3981 1907  L 3981 556  C 3981 192 3930 140 3558 96  L 3558 0  L 4960 0  L 4960 96  L 4794 108  C 4602 121 4518 236 4518 486  L 4518 1804  C 4518 2560 4269 2944 3776 2944  C 3405 2944 3078 2777 2733 2406  C 2618 2771 2400 2944 2054 2944  C 1773 2944 1594 2854 1062 2451  L 1062 2931  L 1018 2944  C 691 2822 474 2751 122 2655  L 122 2547  z " transform="scale(0.015625)"/>
       <path id="NimbusRomNo9L-Regu-6c" d="M 122 3987  L 160 3987  C 230 3993 307 4000 358 4000  C 563 4000 627 3910 627 3609  L 627 556  C 627 211 538 128 134 96  L 134 0  L 1645 0  L 1645 96  C 1242 121 1165 185 1165 537  L 1165 4358  L 1139 4371  C 806 4262 563 4198 122 4089  L 122 3987  z " transform="scale(0.015625)"/>
       <path id="NimbusRomNo9L-Regu-7a" d="M 2675 864  L 2560 889  C 2496 569 2458 467 2374 358  C 2285 249 2067 192 1741 192  L 858 192  L 2579 2783  L 2579 2880  L 358 2880  L 339 2124  L 454 2124  C 512 2592 608 2687 992 2687  L 1875 2687  L 173 96  L 173 0  L 2586 0  L 2675 864  z " transform="scale(0.015625)"/>
       <path id="NimbusRomNo9L-Regu-65" d="M 2611 1052  C 2304 564 2029 377 1619 377  C 1254 377 979 564 794 930  C 678 1174 634 1386 621 1779  L 2592 1779  C 2541 2193 2477 2377 2317 2580  C 2125 2809 1830 2944 1498 2944  C 1178 2944 877 2828 634 2612  C 333 2351 160 1900 160 1374  C 160 486 621 -64 1357 -64  C 1965 -64 2445 313 2714 1007  L 2611 1052  z M 634 1984  C 704 2478 922 2713 1312 2713  C 1702 2713 1856 2535 1939 1984  L 634 1984  z " transform="scale(0.015625)"/>
      </defs>
      <use xlink:href="#NimbusRomNo9L-Regu-4e" transform="scale(0.996264)"/>
      <use xlink:href="#NimbusRomNo9L-Regu-6f" transform="translate(71.929985 0)scale(0.996264)"/>
      <use xlink:href="#NimbusRomNo9L-Regu-72" transform="translate(121.743185 0)scale(0.996264)"/>
      <use xlink:href="#NimbusRomNo9L-Regu-6d" transform="translate(154.918415 0)scale(0.996264)"/>
      <use xlink:href="#NimbusRomNo9L-Regu-61" transform="translate(232.426785 0)scale(0.996264)"/>
      <use xlink:href="#NimbusRomNo9L-Regu-6c" transform="translate(276.660354 0)scale(0.996264)"/>
      <use xlink:href="#NimbusRomNo9L-Regu-69" transform="translate(304.355523 0)scale(0.996264)"/>
      <use xlink:href="#NimbusRomNo9L-Regu-7a" transform="translate(332.050693 0)scale(0.996264)"/>
      <use xlink:href="#NimbusRomNo9L-Regu-65" transform="translate(376.284262 0)scale(0.996264)"/>
      <use xlink:href="#NimbusRomNo9L-Regu-72" transform="translate(420.51783 0)scale(0.996264)"/>
     </g>
    </g>
   </g>
  </g>
 </g>
 <defs>
  <clipPath id="p5b123c569d">
   <rect x="27.532546" y="3.00024" width="149.467214" height="141.612148"/>
  </clipPath>
 </defs>
</svg>