<svg xmlns:xlink="http://www.w3.org/1999/xlink" xmlns="http://www.w3.org/2000/svg" version="1.1" viewBox="0 0 216 218.25">
 <metadata>
  <rdf:RDF xmlns:dc="http://purl.org/dc/elements/1.1/" xmlns:cc="http://creativecommons.org/ns#" xmlns:rdf="http://www.w3.org/1999/02/22-rdf-syntax-ns#">
   <cc:Work>
    <dc:type rdf:resource="http://purl.org/dc/dcmitype/StillImage"/>
    <dc:date>2022-07-21T16:33:58.584903</dc:date>
    <dc:format>image/svg+xml</dc:format>
    <dc:creator>
     <cc:Agent>
      <dc:title>Matplotlib v3.5.0, https://matplotlib.org/</dc:title>
     </cc:Agent>
    </dc:creator>
   </cc:Work>
  </rdf:RDF>
 </metadata>
 <defs>
  <style type="text/css">*{stroke-linejoin: round; stroke-linecap: butt}</style>
 </defs>
 <g id="figure_1">
  <g id="patch_1">
   <path d="M 0 216  L 216 216  L 216 0  L 0 0  z " style="fill: #ffffff"/>
  </g>
  <g id="axes_1">
   <g id="patch_2">
    <path d="M 26.195966 175.804034  L 202.78 175.804034  L 202.78 9.72  L 26.195966 9.72  z " style="fill: #ffffff"/>
   </g>
   <g id="PathCollection_1">
    <defs>
     <path id="m88cf037d54" d="M 0 1.414214  C 0.375054 1.414214 0.734797 1.265203 1 1  C 1.265203 0.734797 1.414214 0.375054 1.414214 0  C 1.414214 -0.375054 1.265203 -0.734797 1 -1  C 0.734797 -1.265203 0.375054 -1.414214 0 -1.414214  C -0.375054 -1.414214 -0.734797 -1.265203 -1 -1  C -1.265203 -0.734797 -1.414214 -0.375054 -1.414214 0  C -1.414214 0.375054 -1.265203 0.734797 -1 1  C -0.734797 1.265203 -0.375054 1.414214 0 1.414214  z " style="stroke: #000000"/>
    </defs>
    <g clip-path="url(#p8909913fe0)">
     <use xlink:href="#m88cf037d54" x="60.410423" y="172.029397" style="stroke: #000000"/>
     <use xlink:href="#m88cf037d54" x="65.833235" y="172.029397" style="stroke: #000000"/>
     <use xlink:href="#m88cf037d54" x="66.092201" y="172.029397" style="stroke: #000000"/>
     <use xlink:href="#m88cf037d54" x="76.878775" y="172.029397" style="stroke: #000000"/>
     <use xlink:href="#m88cf037d54" x="89.211633" y="172.029397" style="stroke: #000000"/>
     <use xlink:href="#m88cf037d54" x="99.771026" y="172.029397" style="stroke: #000000"/>
     <use xlink:href="#m88cf037d54" x="100.131069" y="172.029397" style="stroke: #000000"/>
     <use xlink:href="#m88cf037d54" x="101.235628" y="172.029397" style="stroke: #000000"/>
     <use xlink:href="#m88cf037d54" x="111.68801" y="172.029397" style="stroke: #000000"/>
     <use xlink:href="#m88cf037d54" x="167.998291" y="172.029397" style="stroke: #000000"/>
    </g>
   </g>
   <g id="matplotlib.axis_1">
    <g id="text_1">
     <!-- Risk -->
     <g transform="translate(101.698138 203.26044)scale(0.14 -0.14)">
      <defs>
       <path id="NimbusRomNo9L-Regu-52" d="M 4218 121  C 3974 140 3846 204 3661 421  L 2342 2035  C 2771 2118 2963 2194 3174 2366  C 3379 2532 3501 2800 3501 3100  C 3501 3374 3418 3610 3251 3795  C 3008 4057 2477 4224 1875 4224  L 109 4224  L 109 4102  C 589 4051 653 3981 653 3528  L 653 765  C 653 236 589 159 109 121  L 109 0  L 1882 0  L 1882 121  C 1389 153 1306 236 1306 695  L 1306 1952  L 1664 1965  L 3187 0  L 4218 0  L 4218 121  z M 1306 3756  C 1306 3935 1376 3987 1632 3987  C 2432 3987 2803 3711 2803 3110  C 2803 2790 2669 2521 2438 2399  C 2144 2233 1920 2195 1306 2182  L 1306 3756  z " transform="scale(0.015625)"/>
       <path id="NimbusRomNo9L-Regu-69" d="M 1120 2944  L 128 2592  L 128 2496  L 179 2502  C 256 2515 339 2521 397 2521  C 550 2521 608 2419 608 2137  L 608 652  C 608 192 544 121 102 96  L 102 0  L 1619 0  L 1619 96  C 1197 128 1146 192 1146 652  L 1146 2924  L 1120 2944  z M 819 4352  C 646 4352 499 4204 499 4025  C 499 3846 640 3699 819 3699  C 1005 3699 1152 3839 1152 4025  C 1152 4204 1005 4352 819 4352  z " transform="scale(0.015625)"/>
       <path id="NimbusRomNo9L-Regu-73" d="M 2016 2009  L 1990 2880  L 1920 2880  L 1907 2867  C 1850 2822 1843 2815 1818 2815  C 1779 2815 1715 2828 1645 2860  C 1504 2918 1363 2944 1197 2944  C 691 2944 326 2617 326 2155  C 326 1796 531 1539 1075 1231  L 1446 1019  C 1670 891 1779 737 1779 538  C 1779 256 1574 76 1248 76  C 1030 76 832 160 710 301  C 576 461 518 609 435 974  L 333 974  L 333 -26  L 416 -26  C 461 38 486 51 563 51  C 621 51 710 38 858 0  C 1037 -39 1210 -64 1325 -64  C 1818 -64 2227 307 2227 756  C 2227 1077 2074 1289 1690 1520  L 998 1930  C 819 2033 723 2193 723 2366  C 723 2623 922 2803 1216 2803  C 1581 2803 1773 2585 1920 2014  L 2016 2009  z " transform="scale(0.015625)"/>
       <path id="NimbusRomNo9L-Regu-6b" d="M 45 3987  C 128 3993 186 4000 250 4000  C 461 4000 525 3916 525 3609  L 525 524  C 525 192 506 172 45 96  L 45 0  L 1542 0  L 1542 96  L 1414 102  C 1158 115 1062 204 1062 428  L 1062 1606  L 1958 409  L 1978 384  C 1990 364 2003 345 2022 326  C 2074 262 2093 224 2093 192  C 2093 134 2035 96 1958 96  L 1837 96  L 1837 0  L 3232 0  L 3232 96  C 2950 115 2752 236 2483 563  L 1504 1804  L 1690 1977  C 2144 2400 2541 2694 2726 2745  C 2822 2771 2912 2783 3021 2783  L 3072 2783  L 3072 2880  L 1766 2880  L 1766 2790  C 2016 2783 2086 2758 2086 2668  C 2086 2617 2029 2528 1939 2451  L 1062 1670  L 1062 4358  L 1037 4371  C 794 4294 608 4243 237 4140  L 45 4089  L 45 3987  z " transform="scale(0.015625)"/>
      </defs>
      <use xlink:href="#NimbusRomNo9L-Regu-52" transform="scale(0.996264)"/>
      <use xlink:href="#NimbusRomNo9L-Regu-69" transform="translate(66.450031 0)scale(0.996264)"/>
      <use xlink:href="#NimbusRomNo9L-Regu-73" transform="translate(94.145201 0)scale(0.996264)"/>
      <use xlink:href="#NimbusRomNo9L-Regu-6b" transform="translate(132.898907 0)scale(0.996264)"/>
     </g>
    </g>
   </g>
   <g id="matplotlib.axis_2">
    <g id="text_2">
     <!-- Probability -->
     <g transform="translate(19.176406 123.760374)rotate(-90)scale(0.14 -0.14)">
      <defs>
       <path id="NimbusRomNo9L-Regu-50" d="M 1293 1875  C 1459 1862 1568 1855 1734 1855  C 2234 1855 2579 1919 2854 2073  C 3238 2276 3469 2661 3469 3077  C 3469 3343 3379 3583 3206 3766  C 2950 4044 2394 4224 1792 4224  L 102 4224  L 102 4102  C 576 4051 640 3987 640 3528  L 640 765  C 640 230 589 166 102 121  L 102 0  L 1894 0  L 1894 121  C 1389 140 1293 230 1293 695  L 1293 1875  z M 1293 3772  C 1293 3942 1338 3987 1510 3987  C 2374 3987 2771 3690 2771 3040  C 2771 2427 2394 2112 1658 2112  C 1530 2112 1440 2118 1293 2130  L 1293 3772  z " transform="scale(0.015625)"/>
       <path id="NimbusRomNo9L-Regu-72" d="M 45 2496  C 134 2515 192 2521 269 2521  C 429 2521 486 2419 486 2137  L 486 537  C 486 217 442 172 32 96  L 32 0  L 1568 0  L 1568 96  C 1133 115 1024 211 1024 576  L 1024 2016  C 1024 2220 1299 2540 1472 2540  C 1510 2540 1568 2508 1638 2444  C 1741 2355 1811 2316 1894 2316  C 2048 2316 2144 2425 2144 2604  C 2144 2815 2010 2944 1792 2944  C 1523 2944 1338 2796 1024 2342  L 1024 2931  L 992 2944  C 653 2803 422 2720 45 2598  L 45 2496  z " transform="scale(0.015625)"/>
       <path id="NimbusRomNo9L-Regu-6f" d="M 1600 2944  C 768 2944 186 2329 186 1446  C 186 582 781 -64 1587 -64  C 2394 -64 3008 614 3008 1497  C 3008 2336 2419 2944 1600 2944  z M 1517 2764  C 2054 2764 2432 2150 2432 1273  C 2432 550 2144 115 1664 115  C 1414 115 1178 268 1043 524  C 864 857 762 1305 762 1760  C 762 2368 1062 2764 1517 2764  z " transform="scale(0.015625)"/>
       <path id="NimbusRomNo9L-Regu-62" d="M 979 4358  L 947 4371  C 678 4275 506 4224 205 4140  L 19 4089  L 19 3987  C 58 3993 83 3993 128 3993  C 384 3993 442 3936 442 3667  L 442 345  C 442 147 986 -64 1498 -64  C 2342 -64 2995 639 2995 1555  C 2995 2342 2509 2944 1869 2944  C 1478 2944 1107 2713 979 2399  L 979 4358  z M 979 2060  C 979 2310 1280 2540 1613 2540  C 2112 2540 2432 2041 2432 1260  C 2432 550 2125 140 1600 140  C 1267 140 979 287 979 447  L 979 2060  z " transform="scale(0.015625)"/>
       <path id="NimbusRomNo9L-Regu-61" d="M 2829 422  C 2720 332 2643 300 2547 300  C 2400 300 2355 390 2355 672  L 2355 1920  C 2355 2252 2323 2438 2227 2592  C 2086 2822 1811 2944 1434 2944  C 832 2944 358 2630 358 2227  C 358 2080 486 1952 634 1952  C 787 1952 922 2080 922 2220  C 922 2246 915 2278 909 2323  C 896 2380 890 2432 890 2476  C 890 2649 1094 2790 1350 2790  C 1664 2790 1837 2604 1837 2259  L 1837 1868  C 851 1472 742 1420 467 1177  C 326 1049 237 832 237 620  C 237 217 518 -64 909 -64  C 1190 -64 1453 70 1843 403  C 1875 70 1990 -64 2253 -64  C 2470 -64 2605 12 2829 256  L 2829 422  z M 1837 787  C 1837 588 1805 531 1670 454  C 1517 364 1338 307 1203 307  C 979 307 800 524 800 800  L 800 825  C 800 1203 1062 1433 1837 1715  L 1837 787  z " transform="scale(0.015625)"/>
       <path id="NimbusRomNo9L-Regu-6c" d="M 122 3987  L 160 3987  C 230 3993 307 4000 358 4000  C 563 4000 627 3910 627 3609  L 627 556  C 627 211 538 128 134 96  L 134 0  L 1645 0  L 1645 96  C 1242 121 1165 185 1165 537  L 1165 4358  L 1139 4371  C 806 4262 563 4198 122 4089  L 122 3987  z " transform="scale(0.015625)"/>
       <path id="NimbusRomNo9L-Regu-74" d="M 1632 2880  L 986 2880  L 986 3622  C 986 3686 979 3705 941 3705  C 896 3648 858 3590 813 3526  C 570 3174 294 2867 192 2841  C 122 2796 83 2751 83 2719  C 83 2700 90 2687 109 2675  L 448 2675  L 448 748  C 448 211 640 -64 1018 -64  C 1331 -64 1574 89 1786 422  L 1702 492  C 1568 332 1459 268 1318 268  C 1082 268 986 441 986 844  L 986 2675  L 1632 2675  L 1632 2880  z " transform="scale(0.015625)"/>
       <path id="NimbusRomNo9L-Regu-79" d="M 3040 2880  L 2176 2880  L 2176 2783  C 2381 2783 2483 2726 2483 2623  C 2483 2597 2477 2559 2458 2514  L 1837 741  L 1101 2366  C 1062 2456 1037 2540 1037 2610  C 1037 2726 1133 2771 1408 2783  L 1408 2880  L 90 2880  L 90 2790  C 256 2764 365 2694 416 2585  L 1146 1005  L 1165 953  L 1261 761  C 1440 439 1542 208 1542 112  C 1542 15 1395 -389 1286 -582  C 1197 -749 1056 -871 966 -871  C 928 -871 870 -858 806 -826  C 685 -781 576 -755 467 -755  C 320 -755 192 -884 192 -1037  C 192 -1248 397 -1408 666 -1408  C 1094 -1408 1402 -1050 1747 -126  L 2733 2495  C 2816 2700 2886 2764 3040 2783  L 3040 2880  z " transform="scale(0.015625)"/>
      </defs>
      <use xlink:href="#NimbusRomNo9L-Regu-50" transform="scale(0.996264)"/>
      <use xlink:href="#NimbusRomNo9L-Regu-72" transform="translate(55.391677 0)scale(0.996264)"/>
      <use xlink:href="#NimbusRomNo9L-Regu-6f" transform="translate(88.566907 0)scale(0.996264)"/>
      <use xlink:href="#NimbusRomNo9L-Regu-62" transform="translate(138.380107 0)scale(0.996264)"/>
      <use xlink:href="#NimbusRomNo9L-Regu-61" transform="translate(188.193308 0)scale(0.996264)"/>
      <use xlink:href="#NimbusRomNo9L-Regu-62" transform="translate(232.426876 0)scale(0.996264)"/>
      <use xlink:href="#NimbusRomNo9L-Regu-69" transform="translate(282.240077 0)scale(0.996264)"/>
      <use xlink:href="#NimbusRomNo9L-Regu-6c" transform="translate(309.935246 0)scale(0.996264)"/>
      <use xlink:href="#NimbusRomNo9L-Regu-69" transform="translate(337.630416 0)scale(0.996264)"/>
      <use xlink:href="#NimbusRomNo9L-Regu-74" transform="translate(365.325586 0)scale(0.996264)"/>
      <use xlink:href="#NimbusRomNo9L-Regu-79" transform="translate(393.020755 0)scale(0.996264)"/>
     </g>
    </g>
   </g>
   <g id="line2d_1">
    <path d="M 34.222513 167.52718  L 37.275654 167.014651  L 39.84672 166.373215  L 42.257094 165.545297  L 44.506777 164.531171  L 46.595768 163.346364  L 48.68476 161.899055  L 50.773751 160.167012  L 52.862742 158.135593  L 54.951733 155.799546  L 57.201416 152.949407  L 59.611791 149.534149  L 62.343549 145.26402  L 65.557381 139.803811  L 69.735363 132.231545  L 76.966485 118.580567  L 85.161759 102.715493  L 90.625273 91.641632  L 97.052938 78.049147  L 103.159217 65.27347  L 106.533749 58.720049  L 109.2655 53.868485  L 111.675881 50.002758  L 113.925561 46.784592  L 116.175249 43.960459  L 118.264236 41.692104  L 120.35323 39.754289  L 122.442217 38.127567  L 124.531212 36.785345  L 126.620206 35.696098  L 128.869886 34.766483  L 131.440952 33.957694  L 134.333404 33.293937  L 138.029306 32.693712  L 150.884645 30.822622  L 154.419854 29.97237  L 157.95507 28.890954  L 161.65098 27.526861  L 166.471726 25.492084  L 175.149067 21.798277  L 179.00567 20.435737  L 182.540887 19.42916  L 186.076104 18.664643  L 189.772006 18.101514  L 193.949995 17.69933  L 194.753453 17.644504  L 194.753453 17.644504  " clip-path="url(#p8909913fe0)" style="fill: none; stroke: #000000; stroke-width: 2; stroke-linecap: square"/>
   </g>
   <g id="line2d_2">
    <path d="M 26.195966 32.367823  L 139.630289 32.367823  " clip-path="url(#p8909913fe0)" style="fill: none; stroke-dasharray: 9.25,4; stroke-dashoffset: 0; stroke: #1f77b4; stroke-width: 2.5"/>
   </g>
   <g id="line2d_3">
    <path d="M 140.55524 217  L 140.55524 33.446291  " clip-path="url(#p8909913fe0)" style="fill: none; stroke-dasharray: 9.25,4; stroke-dashoffset: 0; stroke: #1f77b4; stroke-width: 2.5"/>
   </g>
   <g id="patch_3">
    <path d="M 26.195966 175.804034  L 26.195966 9.72  " style="fill: none; stroke: #000000; stroke-width: 0.8; stroke-linejoin: miter; stroke-linecap: square"/>
   </g>
   <g id="patch_4">
    <path d="M 202.78 175.804034  L 202.78 9.72  " style="fill: none; stroke: #000000; stroke-width: 0.8; stroke-linejoin: miter; stroke-linecap: square"/>
   </g>
   <g id="patch_5">
    <path d="M 26.195966 175.804034  L 202.78 175.804034  " style="fill: none; stroke: #000000; stroke-width: 0.8; stroke-linejoin: miter; stroke-linecap: square"/>
   </g>
   <g id="patch_6">
    <path d="M 26.195966 9.72  L 202.78 9.72  " style="fill: none; stroke: #000000; stroke-width: 0.8; stroke-linejoin: miter; stroke-linecap: square"/>
   </g>
   <g id="text_3">
    <!-- $\boldsymbol{\alpha}$ -->
    <g style="fill: #1f77b4" transform="translate(10.303403 34.276711)scale(0.16 -0.16)">
     <defs>
      <path id="CMMIB10-b" d="M 3738 1036  C 4339 1728 4480 2451 4480 2470  C 4480 2560 4384 2560 4326 2560  C 4205 2560 4198 2547 4166 2425  C 4045 1996 3853 1644 3712 1446  C 3706 1753 3699 2131 3354 2476  C 3021 2815 2605 2880 2304 2880  C 998 2880 294 1868 294 1043  C 294 339 819 -64 1619 -64  C 2234 -64 2758 198 3098 441  C 3213 172 3475 -64 3866 -64  C 4288 -64 4506 230 4506 364  C 4506 454 4416 454 4358 454  C 4275 454 4243 454 4211 371  C 4134 185 3923 166 3910 166  C 3750 166 3738 908 3738 1036  z M 1651 166  C 1293 166 1030 339 1030 761  C 1030 972 1178 1683 1370 2054  C 1574 2464 1971 2649 2298 2649  C 2893 2649 2963 1945 2989 1318  C 2995 1158 3021 876 3021 723  C 3021 646 2630 422 2470 352  C 2086 185 1805 166 1651 166  z " transform="scale(0.015625)"/>
     </defs>
     <use xlink:href="#CMMIB10-b" transform="scale(0.996264)"/>
    </g>
   </g>
   <g id="text_4">
    <!-- $\boldsymbol{\alpha}$-quantile -->
    <g style="fill: #1f77b4" transform="translate(119.768769 189.090757)scale(0.16 -0.16)">
     <defs>
      <path id="NimbusRomNo9L-Regu-2d" d="M 250 1664  L 250 1260  L 1824 1260  L 1824 1664  L 250 1664  z " transform="scale(0.015625)"/>
      <path id="NimbusRomNo9L-Regu-71" d="M 2304 2713  C 2010 2886 1818 2944 1568 2944  C 768 2944 154 2228 154 1309  C 154 505 576 -64 1178 -64  C 1549 -64 1901 102 2182 409  L 2182 -794  C 2182 -1152 2067 -1248 1613 -1280  L 1613 -1408  L 3123 -1408  L 3123 -1319  C 2771 -1241 2720 -1189 2720 -916  L 2720 2918  L 2650 2918  L 2304 2713  z M 2182 811  C 2182 658 2157 575 2093 524  C 1952 403 1741 326 1542 326  C 1344 326 1171 390 1043 517  C 838 703 704 1117 704 1539  C 704 2292 1043 2764 1587 2764  C 1984 2764 2182 2554 2182 2126  L 2182 811  z " transform="scale(0.015625)"/>
      <path id="NimbusRomNo9L-Regu-75" d="M 3066 319  L 3034 319  C 2739 319 2669 390 2669 684  L 2669 2880  L 1658 2880  L 1658 2771  C 2054 2752 2131 2688 2131 2368  L 2131 864  C 2131 684 2099 595 2010 524  C 1837 384 1638 307 1446 307  C 1197 307 992 524 992 793  L 992 2880  L 58 2880  L 58 2790  C 365 2771 454 2675 454 2380  L 454 768  C 454 262 762 -64 1229 -64  C 1466 -64 1715 38 1888 211  L 2163 486  L 2163 -45  L 2189 -64  C 2509 64 2739 134 3066 224  L 3066 319  z " transform="scale(0.015625)"/>
      <path id="NimbusRomNo9L-Regu-6e" d="M 102 2547  C 141 2566 205 2572 275 2572  C 454 2572 512 2476 512 2163  L 512 576  C 512 211 442 121 115 96  L 115 0  L 1472 0  L 1472 96  C 1146 121 1050 198 1050 428  L 1050 2227  C 1357 2515 1498 2591 1709 2591  C 2022 2591 2176 2393 2176 1971  L 2176 633  C 2176 230 2093 121 1773 96  L 1773 0  L 3104 0  L 3104 96  C 2790 128 2714 204 2714 518  L 2714 1984  C 2714 2585 2432 2944 1958 2944  C 1664 2944 1466 2835 1030 2425  L 1030 2931  L 986 2944  C 672 2828 454 2758 102 2655  L 102 2547  z " transform="scale(0.015625)"/>
      <path id="NimbusRomNo9L-Regu-65" d="M 2611 1052  C 2304 564 2029 377 1619 377  C 1254 377 979 564 794 930  C 678 1174 634 1386 621 1779  L 2592 1779  C 2541 2193 2477 2377 2317 2580  C 2125 2809 1830 2944 1498 2944  C 1178 2944 877 2828 634 2612  C 333 2351 160 1900 160 1374  C 160 486 621 -64 1357 -64  C 1965 -64 2445 313 2714 1007  L 2611 1052  z M 634 1984  C 704 2478 922 2713 1312 2713  C 1702 2713 1856 2535 1939 1984  L 634 1984  z " transform="scale(0.015625)"/>
     </defs>
     <use xlink:href="#CMMIB10-b" transform="scale(0.996264)"/>
     <use xlink:href="#NimbusRomNo9L-Regu-2d" transform="translate(75.780307 0)scale(0.996264)"/>
     <use xlink:href="#NimbusRomNo9L-Regu-71" transform="translate(108.955537 0)scale(0.996264)"/>
     <use xlink:href="#NimbusRomNo9L-Regu-75" transform="translate(158.768738 0)scale(0.996264)"/>
     <use xlink:href="#NimbusRomNo9L-Regu-61" transform="translate(208.581938 0)scale(0.996264)"/>
     <use xlink:href="#NimbusRomNo9L-Regu-6e" transform="translate(252.815507 0)scale(0.996264)"/>
     <use xlink:href="#NimbusRomNo9L-Regu-74" transform="translate(302.628707 0)scale(0.996264)"/>
     <use xlink:href="#NimbusRomNo9L-Regu-69" transform="translate(330.323877 0)scale(0.996264)"/>
     <use xlink:href="#NimbusRomNo9L-Regu-6c" transform="translate(358.019047 0)scale(0.996264)"/>
     <use xlink:href="#NimbusRomNo9L-Regu-65" transform="translate(385.714216 0)scale(0.996264)"/>
    </g>
   </g>
  </g>
  <g id="axes_2">
   <g id="matplotlib.axis_3"/>
   <g id="line2d_4">
    <path d="M 34.222513 162.157662  L 35.668738 159.790376  L 37.114962 156.99136  L 38.561187 153.723426  L 40.168103 149.506164  L 41.77502 144.646286  L 43.542627 138.550067  L 45.470927 131.031448  L 47.559919 121.960649  L 50.130985 109.748772  L 59.129716 65.933357  L 61.058016 58.162778  L 62.664931 52.511225  L 64.111155 48.128714  L 65.557381 44.435585  L 66.842914 41.725621  L 68.128447 39.529543  L 69.41398 37.805805  L 70.53882 36.641028  L 71.824353 35.64149  L 73.109886 34.9223  L 74.716806 34.292651  L 80.019627 32.4687  L 81.465853 31.627389  L 82.912075 30.535824  L 84.518994 29.021521  L 86.286599 27.031867  L 89.018358 23.557774  L 91.589424 20.381387  L 93.03565 18.904498  L 94.16049 18.020604  L 95.124641 17.499618  L 96.088792 17.236528  L 96.892249 17.239255  L 97.695707 17.4631  L 98.499165 17.924021  L 99.302622 18.635641  L 100.266773 19.835909  L 101.230924 21.426899  L 102.35576 23.787147  L 103.480604 26.691921  L 104.766141 30.666101  L 106.212363 35.932797  L 107.819278 42.688646  L 109.74758 51.869912  L 112.157953 64.58486  L 116.335942 88.142941  L 120.031844 108.418441  L 122.442217 120.444668  L 124.531212 129.780234  L 126.459513 137.375306  L 128.227122 143.4264  L 129.834037 148.161678  L 131.280259 151.807994  L 132.726481 154.887882  L 134.172711 157.42356  L 135.458248 159.241685  L 136.743777 160.670297  L 137.868613 161.616932  L 138.993457 162.294872  L 140.118301 162.717812  L 141.243145 162.899288  L 142.367981 162.852693  L 143.492825 162.591394  L 144.778362 162.047225  L 146.063891 161.261135  L 147.510113 160.115055  L 149.117028 158.556584  L 151.045338 156.361429  L 153.616396 153.052422  L 159.561986 145.231642  L 161.490287 143.133082  L 163.097203 141.706283  L 164.543425 140.725206  L 165.828954 140.122795  L 166.953806 139.817864  L 168.078634 139.727382  L 169.203477 139.853506  L 170.328321 140.193911  L 171.613866 140.836535  L 172.899395 141.733519  L 174.34561 143.017921  L 175.952541 144.738892  L 178.041528 147.334384  L 181.094673 151.555087  L 185.915419 158.23234  L 188.325792 161.194353  L 190.414779 163.441667  L 192.503765 165.360157  L 194.432067 166.836687  L 194.753453 167.056105  L 194.753453 167.056105  " clip-path="url(#p8909913fe0)" style="fill: none; stroke: #7f7f7f; stroke-opacity: 0.25; stroke-width: 2; stroke-linecap: square"/>
   </g>
   <g id="patch_7">
    <path d="M 26.195966 175.804034  L 26.195966 9.72  " style="fill: none; stroke: #000000; stroke-width: 0.8; stroke-linejoin: miter; stroke-linecap: square"/>
   </g>
   <g id="patch_8">
    <path d="M 202.78 175.804034  L 202.78 9.72  " style="fill: none; stroke: #000000; stroke-width: 0.8; stroke-linejoin: miter; stroke-linecap: square"/>
   </g>
   <g id="patch_9">
    <path d="M 26.195966 175.804034  L 202.78 175.804034  " style="fill: none; stroke: #000000; stroke-width: 0.8; stroke-linejoin: miter; stroke-linecap: square"/>
   </g>
   <g id="patch_10">
    <path d="M 26.195966 9.72  L 202.78 9.72  " style="fill: none; stroke: #000000; stroke-width: 0.8; stroke-linejoin: miter; stroke-linecap: square"/>
   </g>
   <g id="legend_1">
    <g id="patch_11">
     <path d="M 147.127414 111.550212  L 194.38 111.550212  Q 196.78 111.550212 196.78 109.150212  L 196.78 76.373822  Q 196.78 73.973822 194.38 73.973822  L 147.127414 73.973822  Q 144.727414 73.973822 144.727414 76.373822  L 144.727414 109.150212  Q 144.727414 111.550212 147.127414 111.550212  z " style="fill: #ffffff; opacity: 0.8; stroke: #cccccc; stroke-linejoin: miter"/>
    </g>
    <g id="line2d_5">
     <path d="M 149.527414 82.973822  L 154.327414 82.973822  L 159.127414 82.973822  " style="fill: none; stroke: #000000; stroke-width: 2; stroke-linecap: square"/>
    </g>
    <g id="text_5">
     <!-- CDF -->
     <g transform="translate(168.727414 87.173822)scale(0.12 -0.12)">
      <defs>
       <path id="NimbusRomNo9L-Regu-43" d="M 3968 2905  L 3910 4352  L 3776 4352  C 3738 4217 3635 4140 3507 4140  C 3450 4140 3354 4159 3258 4198  C 2944 4300 2624 4352 2323 4352  C 1798 4352 1267 4153 870 3801  C 422 3405 179 2809 179 2105  C 179 1510 371 960 698 595  C 1082 179 1670 -64 2304 -64  C 3027 -64 3661 230 4051 748  L 3936 864  C 3462 409 3040 217 2509 217  C 2106 217 1747 345 1472 588  C 1120 902 922 1478 922 2188  C 922 3347 1517 4095 2445 4095  C 2810 4095 3142 3961 3398 3705  C 3603 3501 3699 3321 3821 2905  L 3968 2905  z " transform="scale(0.015625)"/>
       <path id="NimbusRomNo9L-Regu-44" d="M 666 697  C 666 236 589 153 102 121  L 102 0  L 1920 0  C 2662 0 3334 211 3731 568  C 4147 944 4384 1512 4384 2131  C 4384 2705 4192 3202 3840 3553  C 3405 3993 2707 4224 1830 4224  L 102 4224  L 102 4102  C 608 4057 666 3999 666 3526  L 666 697  z M 1318 3738  C 1318 3936 1389 3987 1651 3987  C 2202 3987 2618 3884 2925 3668  C 3424 3323 3686 2775 3686 2086  C 3686 1333 3424 798 2906 498  C 2579 313 2208 236 1651 236  C 1395 236 1318 294 1318 498  L 1318 3738  z " transform="scale(0.015625)"/>
       <path id="NimbusRomNo9L-Regu-46" d="M 3066 1491  L 3066 2966  L 2918 2966  C 2842 2462 2726 2368 2214 2368  L 1286 2368  L 1286 3766  C 1286 3942 1318 3980 1491 3980  L 2362 3980  C 3085 3980 3226 3886 3334 3319  L 3494 3319  L 3475 4224  L 77 4224  L 77 4102  C 550 4064 634 3976 634 3534  L 634 772  C 634 237 563 153 77 121  L 77 0  L 1869 0  L 1869 121  C 1376 147 1286 237 1286 701  L 1286 2105  L 2214 2105  C 2733 2105 2842 2008 2918 1487  L 3066 1491  z " transform="scale(0.015625)"/>
      </defs>
      <use xlink:href="#NimbusRomNo9L-Regu-43" transform="scale(0.996264)"/>
      <use xlink:href="#NimbusRomNo9L-Regu-44" transform="translate(66.450031 0)scale(0.996264)"/>
      <use xlink:href="#NimbusRomNo9L-Regu-46" transform="translate(138.380016 0)scale(0.996264)"/>
     </g>
    </g>
    <g id="line2d_6">
     <path d="M 149.527414 99.962017  L 154.327414 99.962017  L 159.127414 99.962017  " style="fill: none; stroke: #7f7f7f; stroke-opacity: 0.25; stroke-width: 2; stroke-linecap: square"/>
    </g>
    <g id="text_6">
     <!-- PDF -->
     <g transform="translate(168.727414 104.162017)scale(0.12 -0.12)">
      <use xlink:href="#NimbusRomNo9L-Regu-50" transform="scale(0.996264)"/>
      <use xlink:href="#NimbusRomNo9L-Regu-44" transform="translate(55.391677 0)scale(0.996264)"/>
      <use xlink:href="#NimbusRomNo9L-Regu-46" transform="translate(127.321662 0)scale(0.996264)"/>
     </g>
    </g>
   </g>
  </g>
 </g>
 <defs>
  <clipPath id="p8909913fe0">
   <rect x="26.195966" y="9.72" width="176.584034" height="166.084034"/>
  </clipPath>
 </defs>
</svg>