<?xml version="1.0" encoding="utf-8" standalone="no"?>
<!DOCTYPE svg PUBLIC "-//W3C//DTD SVG 1.1//EN"
  "http://www.w3.org/Graphics/SVG/1.1/DTD/svg11.dtd">
<svg xmlns:xlink="http://www.w3.org/1999/xlink" width="576pt" height="432pt" viewBox="0 0 576 432" xmlns="http://www.w3.org/2000/svg" version="1.1">
 <metadata>
  <rdf:RDF xmlns:dc="http://purl.org/dc/elements/1.1/" xmlns:cc="http://creativecommons.org/ns#" xmlns:rdf="http://www.w3.org/1999/02/22-rdf-syntax-ns#">
   <cc:Work>
    <dc:type rdf:resource="http://purl.org/dc/dcmitype/StillImage"/>
    <dc:date>2026-04-12T16:07:40.736865</dc:date>
    <dc:format>image/svg+xml</dc:format>
    <dc:creator>
     <cc:Agent>
      <dc:title>Matplotlib v3.9.4, https://matplotlib.org/</dc:title>
     </cc:Agent>
    </dc:creator>
   </cc:Work>
  </rdf:RDF>
 </metadata>
 <defs>
  <style type="text/css">*{stroke-linejoin: round; stroke-linecap: butt}</style>
 </defs>
 <g id="figure_1">
  <g id="patch_1">
   <path d="M 0 432 
L 576 432 
L 576 0 
L 0 0 
L 0 432 
z
" style="fill: none; opacity: 0"/>
  </g>
  <g id="axes_1">
   <g id="LineCollection_1">
    <path d="M 38.649351 216 
L 185.326203 28.987013 
" clip-path="url(#p3a9ed349c0)" style="fill: none; stroke: #0000cd; stroke-width: 2.5"/>
    <path d="M 38.649351 216 
L 390.673797 28.987013 
" clip-path="url(#p3a9ed349c0)" style="fill: none; stroke: #0000cd; stroke-width: 2.5"/>
    <path d="M 185.326203 28.987013 
L 185.326203 403.012987 
" clip-path="url(#p3a9ed349c0)" style="fill: none; stroke: #0000cd; stroke-width: 2.5"/>
    <path d="M 185.326203 28.987013 
L 390.673797 28.987013 
" clip-path="url(#p3a9ed349c0)" style="fill: none; stroke: #0000cd; stroke-width: 2.5"/>
    <path d="M 185.326203 403.012987 
L 390.673797 28.987013 
" clip-path="url(#p3a9ed349c0)" style="fill: none; stroke: #0000cd; stroke-width: 2.5"/>
    <path d="M 185.326203 403.012987 
L 390.673797 403.012987 
" clip-path="url(#p3a9ed349c0)" style="fill: none; stroke: #0000cd; stroke-width: 2.5"/>
    <path d="M 390.673797 28.987013 
L 390.673797 403.012987 
" clip-path="url(#p3a9ed349c0)" style="fill: none; stroke: #0000cd; stroke-width: 2.5"/>
    <path d="M 390.673797 28.987013 
L 537.350649 216 
" clip-path="url(#p3a9ed349c0)" style="fill: none; stroke: #0000cd; stroke-width: 2.5"/>
   </g>
   <g id="PathCollection_1">
    <defs>
     <path id="C0_0_5132c4e319" d="M 0 27.386128 
C 7.262886 27.386128 14.229281 24.500553 19.364917 19.364917 
C 24.500553 14.229281 27.386128 7.262886 27.386128 -0 
C 27.386128 -7.262886 24.500553 -14.229281 19.364917 -19.364917 
C 14.229281 -24.500553 7.262886 -27.386128 0 -27.386128 
C -7.262886 -27.386128 -14.229281 -24.500553 -19.364917 -19.364917 
C -24.500553 -14.229281 -27.386128 -7.262886 -27.386128 0 
C -27.386128 7.262886 -24.500553 14.229281 -19.364917 19.364917 
C -14.229281 24.500553 -7.262886 27.386128 0 27.386128 
z
"/>
    </defs>
    <g clip-path="url(#p3a9ed349c0)">
     <use xlink:href="#C0_0_5132c4e319" x="38.649351" y="216" style="fill: #40e0d0"/>
    </g>
    <g clip-path="url(#p3a9ed349c0)">
     <use xlink:href="#C0_0_5132c4e319" x="185.326203" y="28.987013" style="fill: #ab82ff"/>
    </g>
    <g clip-path="url(#p3a9ed349c0)">
     <use xlink:href="#C0_0_5132c4e319" x="185.326203" y="403.012987" style="fill: #ff69b4"/>
    </g>
    <g clip-path="url(#p3a9ed349c0)">
     <use xlink:href="#C0_0_5132c4e319" x="390.673797" y="28.987013" style="fill: #00bfff"/>
    </g>
    <g clip-path="url(#p3a9ed349c0)">
     <use xlink:href="#C0_0_5132c4e319" x="390.673797" y="403.012987" style="fill: #ff7f0e"/>
    </g>
    <g clip-path="url(#p3a9ed349c0)">
     <use xlink:href="#C0_0_5132c4e319" x="537.350649" y="216" style="fill: #da70d6"/>
    </g>
   </g>
  </g>
 </g>
 <defs>
  <clipPath id="p3a9ed349c0">
   <rect x="0" y="0" width="576" height="432"/>
  </clipPath>
 </defs>
</svg>
